<?xml version="1.0" encoding="utf-8"?>
<!-- Generator: Adobe Illustrator 16.0.0, SVG Export Plug-In . SVG Version: 6.00 Build 0)  -->
<!DOCTYPE svg PUBLIC "-//W3C//DTD SVG 1.1//EN" "http://www.w3.org/Graphics/SVG/1.1/DTD/svg11.dtd">
<svg version="1.1" id="Layer_1" xmlns="http://www.w3.org/2000/svg" xmlns:xlink="http://www.w3.org/1999/xlink" x="0px" y="0px"
	 width="275px" height="275px" viewBox="0 0 275 275" enable-background="new 0 0 275 275" xml:space="preserve">
<g id="Layer_2" display="none">
</g>
<g id="Layer_2_1_">
	<circle fill="#FFFFFF" stroke="#000000" stroke-miterlimit="10" cx="137.502" cy="138.003" r="127.502"/>
</g>
<g id="Layer_3">
	<circle fill="#FFA457" cx="137.5" cy="139.783" r="82.284"/>
</g>
<g id="Layer_1_1_">
	<g transform="translate(0.000000,275.000000) scale(0.100000,-0.100000)">
		<path fill="#333333" d="M1201.001,2740C892.002,2696.001,622.002,2562.998,405,2345c-196.001-195-323.999-433.999-381.001-710
			c-26.001-126.001-26.001-394.004,0-520c57.002-275.996,185-515,381.001-710C600,209.004,838.999,80.996,1115,24.004
			c126.001-26.006,394.004-26.006,520,0c275.996,56.992,515,185,710,380.996c195.996,195,324.004,434.004,380.996,710
			c26.006,125.996,26.006,393.999,0,520c-56.992,276.001-185,515-380.996,710c-192.002,192.002-422.002,317.998-690,376.001
			C1550.996,2743.999,1301.001,2753.999,1201.001,2740z M1575.996,2595c266.006-46.001,477.002-156.001,670-348.999
			C2487.998,2003.999,2610,1711.001,2610,1375c0-335.996-122.002-629.004-364.004-870.996C2004.004,262.002,1710.996,140,1375,140
			c-336.001,0-628.999,122.002-871.001,364.004C262.002,745.996,140,1039.004,140,1375c0,336.001,122.002,628.999,363.999,871.001
			C695,2436.001,905,2547.002,1165,2593.999C1272.998,2612.998,1467.002,2613.999,1575.996,2595z"/>
		<path fill="#333333" d="M1212.998,2286.001c-315.996-61.001-580-275-695.996-567.002
			c-48.003-121.001-61.001-192.998-61.001-343.999c0-150.996,12.998-222.998,61.001-344.004C565,912.002,620,830,725,725
			c135-135,261.001-207.002,441.001-252.002c95-22.998,323.003-22.998,418.003,0C1764.004,517.998,1890,590,2025,725
			s207.002,260.996,252.002,440.996c22.998,95,22.998,323.003,0,418.003C2232.002,1763.999,2160,1890,2025,2025
			c-134.004,133.999-262.998,207.998-435.996,250C1499.004,2297.002,1302.002,2302.998,1212.998,2286.001z M1555.996,2140
			c193.008-46.001,352.002-153.999,464.004-315c97.002-141.001,140-278.999,140-450c0-170.996-42.998-309.004-140-450
			c-147.998-214.004-382.002-335-645-335c-263.999,0-496.001,120.996-643.999,334.004C632.998,1065.996,590,1204.004,590,1375
			c0,367.002,242.998,677.002,598.999,765C1293.999,2166.001,1450,2166.001,1555.996,2140z"/>
		<path fill="#333333" d="M1130,2008.999c-43.999-12.998-68.999-35-86.001-76.001c-17.998-41.997-18.999-317.998-1.001-350
			c7.002-11.997,39.004-50,72.002-85c32.998-33.999,77.002-81.997,97.998-105.996l37.002-42.998V1215c0-132.002,0-135-25-150.996
			c-30-19.004-81.001-11.006-95,15.996c-6.001,10-10,75-10,144.004V1350h-45h-45v-142.998c0-119.004,2.998-147.998,17.998-176.006
			c49.004-91.992,212.002-95.996,276.001-7.998c18.999,26.006,21.001,42.002,21.001,180c0,84.004-3.999,165-7.998,180
			c-4.004,15-45,68.003-90,118.003C1116.001,1645,1120,1636.001,1120,1757.002c0,130.996,13.999,162.998,71.001,162.998
			c50,0,62.998-30,66.997-151.001l4.004-108.999h38.999H1340v125c0,143.999-12.002,185-58.999,210
			C1241.001,2015,1172.998,2022.002,1130,2008.999z"/>
		<path fill="#333333" d="M1410,1225V710h50h50.996L1510,952.998L1509.004,1195l73.994,5c135,10,159.004,44.004,165,233.999
			c5,153.003-7.002,222.002-45.996,258.999c-41.006,39.004-72.998,47.002-187.998,47.002H1410V1225z M1634.004,1621.001
			c20-22.002,31.992-151.001,21.992-235c-10-76.001-30-96.001-95.996-96.001h-50v175v175h52.998
			C1602.998,1640,1620.996,1635,1634.004,1621.001z"/>
		<path fill="#333333" d="M2357.002,960.996c-47.002-115.996-125-230-226.006-331.992c-145-146.006-290.996-232.002-487.998-286.006
			C1554.004,317.998,1529.004,315,1375,315c-153.999,0-178.999,2.998-267.998,27.998c-309.004,85-555,289.004-694.004,574.004
			c-25,50.996-46.997,92.998-50,92.998c-1.997,0-12.998-5-22.998-10c-17.998-10-17.998-14.004,16.001-87.002
			C495,605.996,771.001,377.002,1105,289.004C1183.999,267.998,1217.998,265,1375,265c204.004,0,285.996,15,447.002,85
			C2070.996,457.002,2299.004,685,2400,925.996c32.002,77.002,32.002,88.008,2.002,96.006
			C2387.998,1025.996,2379.004,1012.998,2357.002,960.996z"/>
	</g>
</g>
</svg>
